HIERARCHY
ROOT pelvis
{
	OFFSET 0.003123 -0.351407 0.012037
	CHANNELS 6 Xposition Yposition Zposition Zrotation Yrotation Xrotation 
	JOINT left_hip
	{
		OFFSET 0.058189 -0.092763 -0.026001
		CHANNELS 3 Zrotation Yrotation Xrotation
		JOINT left_knee
		{
			OFFSET 0.054695 -0.378753 -0.009396
			CHANNELS 3 Zrotation Yrotation Xrotation
			JOINT left_ankle
			{
				OFFSET -0.043453 -0.403059 -0.031876
				CHANNELS 3 Zrotation Yrotation Xrotation
				JOINT left_foot
				{
					OFFSET 0.047257 -0.057997 0.118216
					CHANNELS 3 Zrotation Yrotation Xrotation
					End Site
					{
						OFFSET 0.000000 0.000000 0.000000
					}
				}
			}
		}
	}
	JOINT right_hip
	{
		OFFSET -0.063267 -0.103908 -0.021250
		CHANNELS 3 Zrotation Yrotation Xrotation
		JOINT right_knee
		{
			OFFSET -0.044210 -0.362380 -0.016824
			CHANNELS 3 Zrotation Yrotation Xrotation
			JOINT right_ankle
			{
				OFFSET 0.015417 -0.410728 -0.020192
				CHANNELS 3 Zrotation Yrotation Xrotation
				JOINT right_foot
				{
					OFFSET -0.038812 -0.058328 0.119049
					CHANNELS 3 Zrotation Yrotation Xrotation
					End Site
					{
						OFFSET 0.000000 0.000000 0.000000
					}
				}
			}
		}
	}
	JOINT spine_1
	{
		OFFSET -0.002763 0.109891 -0.027618
		CHANNELS 3 Zrotation Yrotation Xrotation
		JOINT spine_2
		{
			OFFSET 0.009448 0.131853 -0.005940
			CHANNELS 3 Zrotation Yrotation Xrotation
			JOINT spine_3
			{
				OFFSET -0.011330 0.052235 0.028447
				CHANNELS 3 Zrotation Yrotation Xrotation
				JOINT neck
				{
					OFFSET -0.012164 0.165167 -0.031615
					CHANNELS 3 Zrotation Yrotation Xrotation
					JOINT head
					{
						OFFSET 0.024783 0.160452 0.020737
						CHANNELS 3 Zrotation Yrotation Xrotation
						End Site
						{
							OFFSET 0.000000 0.000000 0.000000
						}
					}
				}
				JOINT left_collar
				{
					OFFSET 0.046364 0.084944 -0.007220
					CHANNELS 3 Zrotation Yrotation Xrotation
					JOINT left_shoulder
					{
						OFFSET 0.119239 0.057728 -0.015461
						CHANNELS 3 Zrotation Yrotation Xrotation
						JOINT left_elbow
						{
							OFFSET 0.254123 -0.072151 -0.042459
							CHANNELS 3 Zrotation Yrotation Xrotation
							JOINT left_wrist
							{
								OFFSET 0.251987 0.023221 -0.002472
								CHANNELS 3 Zrotation Yrotation Xrotation
								JOINT left_index_1
								{
									OFFSET 0.101902 -0.008688 0.019351
									CHANNELS 3 Zrotation Yrotation Xrotation
									JOINT left_index_2
									{
										OFFSET 0.030149 -0.011154 0.001151
										CHANNELS 3 Zrotation Yrotation Xrotation
										JOINT left_index_3
										{
											OFFSET 0.006504 -0.021577 -0.002433
											CHANNELS 3 Zrotation Yrotation Xrotation
											End Site
											{
												OFFSET 0.000000 0.000000 0.000000
											}
										}
									}
								}
								JOINT left_middle_1
								{
									OFFSET 0.109398 -0.006328 -0.003981
									CHANNELS 3 Zrotation Yrotation Xrotation
									JOINT left_middle_2
									{
										OFFSET 0.026472 -0.015218 -0.004641
										CHANNELS 3 Zrotation Yrotation Xrotation
										JOINT left_middle_3
										{
											OFFSET 0.005022 -0.023347 -0.001911
											CHANNELS 3 Zrotation Yrotation Xrotation
											End Site
											{
												OFFSET 0.000000 0.000000 0.000000
											}
										}
									}
								}
								JOINT left_pinky_1
								{
									OFFSET 0.084047 -0.014539 -0.043750
									CHANNELS 3 Zrotation Yrotation Xrotation
									JOINT left_pinky_2
									{
										OFFSET 0.012124 -0.014448 -0.005375
										CHANNELS 3 Zrotation Yrotation Xrotation
										JOINT left_pinky_3
										{
											OFFSET 0.003798 -0.018853 0.000167
											CHANNELS 3 Zrotation Yrotation Xrotation
											End Site
											{
												OFFSET 0.000000 0.000000 0.000000
											}
										}
									}
								}
								JOINT left_ring_1
								{
									OFFSET 0.097444 -0.009268 -0.027345
									CHANNELS 3 Zrotation Yrotation Xrotation
									JOINT left_ring_2
									{
										OFFSET 0.023561 -0.016057 -0.001895
										CHANNELS 3 Zrotation Yrotation Xrotation
										JOINT left_ring_3
										{
											OFFSET 0.004257 -0.023548 0.000814
											CHANNELS 3 Zrotation Yrotation Xrotation
											End Site
											{
												OFFSET 0.000000 0.000000 0.000000
											}
										}
									}
								}
								JOINT left_thumb_1
								{
									OFFSET 0.040636 -0.017977 0.025611
									CHANNELS 3 Zrotation Yrotation Xrotation
									JOINT left_thumb_2
									{
										OFFSET 0.021637 -0.017639 0.011623
										CHANNELS 3 Zrotation Yrotation Xrotation
										JOINT left_thumb_3
										{
											OFFSET 0.024002 -0.008356 0.006548
											CHANNELS 3 Zrotation Yrotation Xrotation
											End Site
											{
												OFFSET 0.000000 0.000000 0.000000
											}
										}
									}
								}
							}
						}
					}
				}
				JOINT right_collar
				{
					OFFSET -0.047695 0.084339 -0.013400
					CHANNELS 3 Zrotation Yrotation Xrotation
					JOINT right_shoulder
					{
						OFFSET -0.102578 0.053524 -0.012669
						CHANNELS 3 Zrotation Yrotation Xrotation
						JOINT right_elbow
						{
							OFFSET -0.271150 -0.036492 -0.026467
							CHANNELS 3 Zrotation Yrotation Xrotation
							JOINT right_wrist
							{
								OFFSET -0.249267 -0.004533 -0.015325
								CHANNELS 3 Zrotation Yrotation Xrotation
								JOINT right_index_1
								{
									OFFSET -0.099881 -0.011783 0.019600
									CHANNELS 3 Zrotation Yrotation Xrotation
									JOINT right_index_2
									{
										OFFSET -0.030148 -0.011154 0.001151
										CHANNELS 3 Zrotation Yrotation Xrotation
										JOINT right_index_3
										{
											OFFSET -0.006505 -0.021577 -0.002432
											CHANNELS 3 Zrotation Yrotation Xrotation
											End Site
											{
												OFFSET 0.000000 0.000000 0.000000
											}
										}
									}
								}
								JOINT right_middle_1
								{
									OFFSET -0.107376 -0.009422 -0.003734
									CHANNELS 3 Zrotation Yrotation Xrotation
									JOINT right_middle_2
									{
										OFFSET -0.026472 -0.015218 -0.004641
										CHANNELS 3 Zrotation Yrotation Xrotation
										JOINT right_middle_3
										{
											OFFSET -0.005022 -0.023347 -0.001911
											CHANNELS 3 Zrotation Yrotation Xrotation
											End Site
											{
												OFFSET 0.000000 0.000000 0.000000
											}
										}
									}
								}
								JOINT right_pinky_1
								{
									OFFSET -0.082027 -0.017634 -0.043503
									CHANNELS 3 Zrotation Yrotation Xrotation
									JOINT right_pinky_2
									{
										OFFSET -0.012123 -0.014448 -0.005374
										CHANNELS 3 Zrotation Yrotation Xrotation
										JOINT right_pinky_3
										{
											OFFSET -0.003798 -0.018852 0.000167
											CHANNELS 3 Zrotation Yrotation Xrotation
											End Site
											{
												OFFSET 0.000000 0.000000 0.000000
											}
										}
									}
								}
								JOINT right_ring_1
								{
									OFFSET -0.095423 -0.012362 -0.027099
									CHANNELS 3 Zrotation Yrotation Xrotation
									JOINT right_ring_2
									{
										OFFSET -0.023561 -0.016057 -0.001895
										CHANNELS 3 Zrotation Yrotation Xrotation
										JOINT right_ring_3
										{
											OFFSET -0.004257 -0.023548 0.000816
											CHANNELS 3 Zrotation Yrotation Xrotation
											End Site
											{
												OFFSET 0.000000 0.000000 0.000000
											}
										}
									}
								}
								JOINT right_thumb_1
								{
									OFFSET -0.038613 -0.021074 0.025861
									CHANNELS 3 Zrotation Yrotation Xrotation
									JOINT right_thumb_2
									{
										OFFSET -0.021636 -0.017639 0.011623
										CHANNELS 3 Zrotation Yrotation Xrotation
										JOINT right_thumb_3
										{
											OFFSET -0.024004 -0.008353 0.006547
											CHANNELS 3 Zrotation Yrotation Xrotation
											End Site
											{
												OFFSET 0.000000 0.000000 0.000000
											}
										}
									}
								}
							}
						}
					}
				}
			}
		}
	}
}
MOTION
Frames: 4
Frame Time: 0.050000
0.000027 0.947064 0.000587 0.832421 -0.552603 0.872257 2.148081 -1.444879 -11.114066 -0.163952 -1.569228 14.758469 5.733986 7.076440 -6.880098 0.000000 0.000000 0.000000 -2.374474 0.493026 -3.750937 7.224209 -0.344918 0.086101 -2.784206 -7.261394 3.304974 0.000000 0.000000 0.000000 4.723925 -0.398453 5.329541 -8.311902 -2.849308 -26.034007 8.648144 0.220865 35.323678 1.845328 5.011277 -34.137303 0.000000 0.000000 0.000000 12.060085 0.809967 0.670045 -101.169892 -30.559614 4.441438 6.463091 11.421133 -0.198137 -4.299555 -2.734169 -4.900355 4.926558 2.498927 0.828798 -12.807851 -1.252764 -4.699915 0.000000 0.000000 0.000000 1.402607 5.888707 3.949876 -8.617042 -2.992229 -9.464534 0.000000 0.000000 0.000000 -12.132833 4.644231 1.607260 13.894187 -2.234527 -8.608464 0.000000 0.000000 0.000000 -4.305712 4.057380 2.706147 -0.272402 -3.817973 -12.812722 0.000000 0.000000 0.000000 -3.185876 -9.455962 -4.105364 8.281569 8.122911 2.138342 0.000000 0.000000 0.000000 -8.640478 -0.815480 0.240491 81.345179 16.629335 1.116094 12.853060 12.937751 0.519276 1.895750 -0.598449 -2.070485 -3.529437 -0.333215 0.025190 12.105570 -0.754184 -0.166333 0.000000 0.000000 0.000000 -0.779216 -6.641477 4.159189 8.898540 2.365954 -8.489100 0.000000 0.000000 0.000000 10.179868 -5.966758 3.345413 -9.339727 2.473776 -10.268619 0.000000 0.000000 0.000000 2.634491 -5.890657 4.059077 5.383125 4.922597 -14.862506 0.000000 0.000000 0.000000 5.164243 9.098852 -2.940085 -10.198376 -9.441994 2.281702 0.000000 0.000000 0.000000 
0.000557 0.947064 0.003227 1.080746 -0.482246 1.556896 1.056673 -1.741032 -12.688847 1.088450 -2.020701 16.271117 5.731011 6.882941 -7.144505 0.000000 0.000000 0.000000 -2.010034 0.691495 -5.704847 6.034745 -0.325013 2.473219 -3.210489 -7.677574 2.533268 0.000000 0.000000 0.000000 4.680210 -0.434110 5.599872 -8.119482 -3.460769 -28.208485 8.821285 0.397665 36.796552 1.255924 4.809662 -33.550715 0.000000 0.000000 0.000000 12.407197 0.605216 0.784241 -101.262975 -32.002800 5.403520 4.215136 13.152418 -0.564491 -4.184244 -2.880466 -6.537359 5.210941 0.087215 -0.088210 -14.568359 -0.727756 -2.866355 0.000000 0.000000 0.000000 0.817284 4.068879 2.691354 -8.762891 -2.736663 -8.067552 0.000000 0.000000 0.000000 -12.922612 2.906512 -0.292500 14.197711 -1.882887 -5.924582 0.000000 0.000000 0.000000 -4.945089 2.090874 1.308758 0.291791 -1.342792 -4.255463 0.000000 0.000000 0.000000 -2.969605 -10.812636 -4.661097 9.507550 11.539066 4.132144 0.000000 0.000000 0.000000 -8.905119 -0.782963 0.225314 82.292745 15.565911 0.625680 11.749819 14.679529 0.633950 2.364163 -1.643521 2.507558 -3.164203 -1.286783 0.406713 15.310772 0.900109 -5.523540 0.000000 0.000000 0.000000 -1.899670 -2.905464 2.142660 12.117179 0.314097 -3.470521 0.000000 0.000000 0.000000 9.338972 -7.215017 4.142930 -8.110065 2.796459 -15.798594 0.000000 0.000000 0.000000 1.498817 -1.862808 1.198042 5.968856 0.723605 -1.728450 0.000000 0.000000 0.000000 5.589871 9.427298 -3.685226 -9.694427 -10.881849 2.406094 0.000000 0.000000 0.000000 
-0.001504 0.946097 0.001907 1.254456 0.088227 1.641681 0.262297 -1.990547 -13.866732 1.995154 -2.425323 17.660292 5.547123 6.324874 -7.232916 0.000000 0.000000 0.000000 -3.431179 0.522880 -3.924757 8.438768 -0.383076 -0.894667 -3.017943 -7.768206 3.510362 0.000000 0.000000 0.000000 4.709767 -0.464856 5.905744 -8.171810 -3.504398 -28.535137 8.727906 0.124822 37.379939 0.467720 4.657343 -33.221274 0.000000 0.000000 0.000000 11.998990 0.972002 0.629585 -100.454328 -32.721837 5.607541 1.504953 13.548390 -0.982237 -4.146940 -1.471892 -4.512109 5.358086 -3.648545 -1.527378 -16.694810 2.038892 3.097726 0.000000 0.000000 0.000000 1.073021 4.720123 3.148290 -7.775638 -3.651183 -11.357477 0.000000 0.000000 0.000000 -11.478178 4.781292 2.055907 14.160492 -2.659524 -10.869871 0.000000 0.000000 0.000000 -3.651435 3.071709 2.061437 -1.308136 -4.420796 -13.995854 0.000000 0.000000 0.000000 -4.293686 -10.501638 -3.894932 11.242124 9.576104 2.594128 0.000000 0.000000 0.000000 -8.879409 -0.400152 0.363419 82.370100 15.974642 1.004204 11.769446 14.980834 0.663044 2.456673 -1.617202 1.590716 -3.587845 -0.110881 -0.076726 16.754571 -2.292443 1.492280 0.000000 0.000000 0.000000 -1.277637 -6.520330 4.213540 9.040469 3.511287 -12.854553 0.000000 0.000000 0.000000 8.741534 -6.064469 3.426018 -6.602674 1.533017 -7.071801 0.000000 0.000000 0.000000 2.098450 -5.654299 3.814282 6.776522 3.937573 -12.498094 0.000000 0.000000 0.000000 5.192862 10.056238 -4.176775 -9.366405 -11.361635 2.833563 0.000000 0.000000 0.000000 
-0.000739 0.944163 0.000587 1.485955 0.631449 1.446775 -0.209393 -2.200545 -14.874753 2.131197 -2.749198 19.670254 5.635515 6.008927 -7.830747 0.000000 0.000000 0.000000 -4.871792 0.395042 -2.153719 10.450333 -0.338210 -3.663664 -2.925657 -7.888527 4.179764 0.000000 0.000000 0.000000 4.469465 -0.488265 6.205421 -8.289653 -3.286464 -27.913153 8.939452 0.299319 36.584816 -0.205381 4.516899 -32.971114 0.000000 0.000000 0.000000 12.300823 -0.053922 1.113698 -99.348270 -32.745805 4.982122 -0.989341 12.604756 -1.260766 -3.794675 -0.773782 -1.871611 4.059020 -3.076557 -1.309269 -15.946583 1.113182 0.172787 0.000000 0.000000 0.000000 0.828168 5.285345 3.409319 -6.901605 -4.541693 -15.106119 0.000000 0.000000 0.000000 -10.765208 5.521689 2.667059 11.633098 -1.902329 -7.810755 0.000000 0.000000 0.000000 -2.943138 3.364804 2.245385 -1.994801 -3.265075 -10.957068 0.000000 0.000000 0.000000 -5.799901 -10.297002 -3.285306 12.287785 8.748912 1.549746 0.000000 0.000000 0.000000 -8.827704 -1.122277 0.009832 82.418160 15.787563 1.237994 12.222123 13.815261 0.567361 2.349471 -1.339111 0.623354 -4.468169 2.405842 -1.109042 17.757413 -3.178889 3.457754 0.000000 0.000000 0.000000 -0.603857 -4.079418 2.574947 8.590843 0.675314 -3.694565 0.000000 0.000000 0.000000 11.399354 -9.841298 6.418787 -11.551411 3.328196 -18.814972 0.000000 0.000000 0.000000 2.921107 -3.178538 2.004389 3.727267 2.750380 -9.455503 0.000000 0.000000 0.000000 7.262948 7.820531 -1.282466 -14.119842 -4.749050 -1.236530 0.000000 0.000000 0.000000 
